PathFileType	4	(X/Y/Z)	D:\TRACE\v60_Jaco2_6-2-23\JustBodyDRS_Motion2_1-v60.trc
DataRate	CameraRate	NumFrames	NumMarkers	Units	OrigDataRate	OrigDataStartFrame	OrigNumFrames
100.00	100.00	      38	9	mm	100.00	5257	      7009
Frame#	Time	front left toe			Front right toe			aft left toe			aft right toe			Arm			FL body			FR body			AL Body			AR Body			
		X1	Y1	Z1	X2	Y2	Z2	X3	Y3	Z3	X4	Y4	Z4	X5	Y5	Z5	X6	Y6	Z6	X7	Y7	Z7	X8	Y8	Z8	X9	Y9	Z9	

5257	52.560	-271.44376	15.16306	-296.68747	76.05442	7.45190	-310.82904	-307.15665	21.94468	320.81946	105.10002	56.96336	328.25424	-207.21014	1178.41235	-473.81207	-171.49118	547.45837	-439.23395	-11.68749	549.81232	-440.23557	-165.67131	588.04779	505.81241	-9.44651	584.18896	505.95078	
5258	52.570	-270.25262	14.05799	-298.05038	77.66588	8.21799	-310.28955	-305.86087	21.25143	321.07971	107.81332	50.39032	328.90820	-205.78482	1178.62073	-472.02448	-170.52580	547.75781	-438.81723	-9.86020	550.12244	-439.52734	-164.61694	586.97858	506.68781	-7.72592	583.21185	507.16971	
5259	52.580	-269.86478	11.96616	-298.28110	78.52888	8.87320	-310.16510	-304.97409	20.73018	321.53568	110.50490	43.99318	329.49622	-205.24953	1178.86694	-470.20013	-168.04120	548.03094	-437.43741	-8.10139	550.70703	-438.48520	-162.89014	585.93695	507.95422	-6.91419	582.04297	508.22556	
5260	52.590	-269.39987	13.83520	-298.25781	79.58196	9.52451	-309.72086	-303.68796	19.86091	321.93582	112.27768	37.08832	329.97055	-203.99269	1179.39331	-468.31271	-166.51373	549.39532	-436.14941	-6.54002	551.72852	-437.53665	-161.55316	585.15112	508.78586	-5.25181	581.06012	509.39944	
5261	52.600	-267.65317	15.03938	-297.14468	80.70010	10.47024	-309.33328	-302.16418	19.14792	322.28400	113.10256	29.12147	330.07596	-202.55191	1180.44482	-466.09909	-165.70969	551.17004	-435.47974	-5.54783	553.17072	-435.95935	-159.70470	584.24158	510.45932	-3.71117	580.37946	510.72415	
5262	52.610	-266.00064	16.45688	-296.44418	81.62033	11.28378	-308.81497	-301.40866	18.83150	322.44714	114.55847	18.78144	327.75369	-200.35008	1182.18640	-463.05365	-164.10814	552.46637	-434.44556	-3.74147	554.63892	-434.94760	-158.81505	583.63983	511.45569	-2.14566	579.83392	511.73978	
5263	52.620	-264.90866	17.57936	-296.07736	82.81370	12.08292	-308.45645	-299.36163	18.41258	323.02350	118.45066	19.04177	327.68753	-197.62338	1184.66724	-459.59491	-161.47505	552.21503	-432.85550	-1.43226	555.63708	-433.90628	-157.85905	584.51294	512.22253	-2.06048	581.43506	512.96790	
5264	52.630	-263.19598	17.26523	-294.52936	85.09557	14.60233	-308.40024	-298.19046	20.48894	322.85468	119.89999	20.12432	330.77692	-195.55470	1186.91309	-457.28879	-159.35713	552.46985	-431.83942	0.28282	556.28906	-432.85107	-156.50514	585.97632	513.33942	-0.51864	583.53198	513.81165	
5265	52.640	-262.06781	17.69148	-293.95313	85.44696	18.97165	-307.38196	-293.12155	23.07689	324.61560	118.97397	18.16099	331.84537	-195.02539	1188.74963	-456.00104	-157.94061	554.75677	-431.34988	2.50129	557.76532	-431.69244	-155.67967	586.36890	514.27649	0.88393	583.42957	515.33185	
5266	52.650	-261.12881	18.80653	-294.29282	85.34908	23.80959	-303.94522	-287.77133	26.09710	328.24454	120.16031	17.41517	330.05911	-194.90465	1189.38672	-455.71893	-155.46156	556.81519	-430.21869	3.91151	559.95313	-430.63397	-154.96960	585.28772	515.07690	2.04275	582.43860	516.49945	
5267	52.660	-260.21100	19.14005	-293.82877	84.18927	32.76759	-302.16086	-283.29181	32.95141	328.91772	121.58147	16.79492	332.05612	-194.77959	1189.16064	-455.34268	-153.82962	558.77148	-429.65323	5.72955	562.05731	-429.81415	-153.97316	583.63336	515.88403	3.19519	581.23596	517.48193	
5268	52.670	-259.13913	19.60197	-293.86548	84.85856	42.71255	-301.14737	-280.73199	41.57421	327.98059	122.39538	16.18716	331.53577	-193.58630	1189.67017	-453.67322	-152.44919	560.05853	-429.02368	7.33018	563.81787	-429.55878	-153.02534	582.70068	516.53076	4.34980	580.41425	518.19757	
5269	52.680	-258.41760	20.21037	-293.62482	87.35350	55.09188	-301.46213	-279.46732	53.10064	324.92242	123.12858	15.43700	332.11859	-191.52744	1191.34351	-450.87903	-152.14900	561.27222	-428.93073	8.67975	564.54486	-428.86249	-151.36154	581.95898	517.15137	5.52206	579.68915	518.77173	
5270	52.690	-257.50238	20.83715	-293.22192	91.24009	66.78530	-302.36993	-279.07706	65.25816	322.74786	124.45571	14.63835	332.49451	-189.96278	1193.67419	-448.06720	-150.55835	562.05237	-428.44443	9.50865	565.57227	-428.76605	-151.15656	581.17145	517.76123	7.16914	578.50793	519.88947	
5271	52.700	-256.25522	21.53456	-292.87421	94.68029	79.09455	-303.43735	-279.17157	76.85291	321.41968	125.57394	13.45933	332.55917	-189.08467	1195.59460	-445.35455	-149.62750	562.92883	-427.74152	9.85545	566.71588	-428.17020	-149.36064	579.25800	518.40564	8.59447	576.91931	519.94080	
5272	52.710	-255.51718	22.28325	-292.37415	97.96684	91.45668	-304.63992	-278.79111	88.07852	320.56876	126.39748	12.89381	333.01721	-188.65446	1196.81323	-442.50766	-149.45886	564.48016	-427.67068	10.38589	568.06238	-427.74924	-147.95117	577.22876	519.03546	9.98279	575.08014	520.52039	
5273	52.720	-254.63660	22.79448	-292.22589	100.51265	103.44588	-305.35907	-278.09848	98.40029	320.31512	128.11240	12.04436	333.19562	-188.74152	1197.53760	-439.26736	-148.81914	565.73657	-427.02521	11.72030	569.24323	-427.74399	-146.50951	575.56415	519.44098	11.76826	573.18494	521.03619	
5274	52.730	-253.68143	23.48155	-291.95007	102.34126	114.60809	-306.00735	-276.46667	108.10573	320.26819	128.87131	11.40433	333.56619	-188.07155	1198.40564	-436.78775	-147.42830	566.76086	-426.14957	12.25362	570.23779	-426.87924	-144.98424	573.81122	519.98438	13.34777	571.36981	521.53857	
5275	52.740	-252.99254	24.11953	-291.48422	103.09993	124.97821	-306.45236	-275.12494	117.09967	320.21738	130.04645	10.49610	333.82498	-186.58572	1199.46973	-434.97452	-147.33621	568.05719	-426.09384	13.40574	571.30951	-426.51660	-143.93637	572.18542	520.43964	14.83647	569.80603	522.06567	
5276	52.750	-252.16290	25.04358	-291.23639	103.44161	134.91890	-306.63901	-274.18964	125.18888	320.35400	131.00624	9.97796	334.04056	-185.15073	1200.73303	-432.96561	-146.05763	568.75586	-425.06393	13.80721	572.26227	-426.14957	-142.71667	570.72626	521.16809	16.28216	568.54242	522.63251	
5277	52.760	-251.30733	25.82416	-290.83606	103.92380	142.71860	-306.34241	-272.80426	132.13029	320.70868	131.82320	8.70120	334.47281	-184.03609	1201.82654	-430.78345	-145.35851	569.40826	-424.27686	13.74706	573.01044	-425.55225	-140.89192	568.96265	521.41357	17.05379	567.15607	523.04333	
5278	52.770	-250.48491	26.80365	-290.37927	104.80340	147.70323	-305.59055	-271.52567	138.12930	321.19479	133.00224	8.33336	334.83368	-183.58832	1202.69336	-428.48837	-145.69901	570.66449	-424.24585	14.37834	573.75195	-424.94324	-139.48868	568.03424	522.12830	18.50869	566.60590	524.65387	
5279	52.780	-249.66772	27.34800	-289.88715	106.47725	150.38458	-304.46033	-270.52322	142.66505	321.65848	133.80215	7.38781	335.04660	-182.68361	1203.43250	-426.44318	-144.55031	571.02673	-423.21100	15.29907	574.39301	-424.57870	-138.67873	567.21820	522.67188	19.60415	565.82953	525.15363	
5280	52.790	-248.89075	27.97997	-289.47980	108.13308	151.22639	-302.87762	-270.96527	143.83421	322.99615	134.59891	6.92915	335.57321	-182.90616	1204.11792	-424.81870	-144.11307	571.88263	-422.62927	15.67759	574.81378	-424.09668	-138.16602	567.16541	523.69568	16.26146	563.99603	523.24335	
5281	52.800	-247.79527	28.72609	-289.17929	107.17298	149.82474	-302.03418	-271.81375	142.86694	324.28531	135.62523	5.91922	335.57602	-182.09059	1204.37732	-423.90533	-144.68906	572.47693	-422.30161	15.97435	575.41547	-423.50143	-136.46286	566.16156	523.94098	18.67249	563.13953	523.76605	
5282	52.810	-247.11650	29.23690	-288.72137	107.37014	146.37163	-300.11545	-272.92661	139.21809	325.88464	136.04016	5.40164	335.98990	-181.37820	1205.01306	-422.89999	-144.27095	573.13361	-421.66153	16.21025	575.88971	-423.02991	-135.85869	565.68207	524.72412	19.38390	562.55273	524.73303	
5283	52.820	-246.63350	30.29364	-288.23996	106.63868	141.93260	-298.85004	-273.64456	134.37759	327.69794	137.11319	4.57411	336.17136	-179.81874	1205.63525	-421.27902	-144.09610	573.71698	-421.00864	16.35440	576.17596	-422.54889	-135.02699	565.20447	525.23169	19.11114	561.82086	524.86865	
5284	52.830	-245.91815	30.83413	-287.69495	105.75898	136.17484	-297.72028	-273.96344	128.96446	330.00412	137.78751	4.05827	336.44559	-178.86568	1206.08240	-420.89648	-143.40921	574.06415	-420.13202	16.07231	576.41589	-421.88373	-134.38419	564.57050	525.59723	20.83413	560.76117	525.26581	
5285	52.840	-245.35138	31.21858	-287.58621	103.80859	129.54808	-296.64587	-273.88879	122.84161	332.29477	138.57393	3.46976	336.91736	-177.60608	1206.42554	-419.25143	-143.40744	574.57880	-419.66293	15.98302	576.69019	-421.59732	-133.75023	563.94489	525.94745	22.40447	560.04675	526.39117	
5286	52.850	-244.68500	31.82991	-287.14478	104.26633	121.85733	-295.55142	-274.18402	117.90500	333.71198	138.98494	2.72941	336.86368	-176.66998	1207.35974	-418.41385	-143.47594	575.17798	-419.51962	15.88385	577.07947	-421.14514	-133.49461	563.13678	526.49646	22.44612	559.24084	526.90350	
5287	52.860	-244.24370	32.14078	-286.88187	103.23808	113.06680	-294.52206	-275.37073	112.88074	334.55643	139.66479	2.33667	337.10986	-174.89485	1208.16821	-416.64972	-144.46449	576.33539	-419.52881	15.82017	577.39465	-420.89911	-133.23468	562.91803	526.66406	23.10002	558.57635	527.24762	
5288	52.870	-243.76147	32.71143	-286.57083	101.49457	103.37477	-293.77176	-277.23334	106.50330	335.10715	140.23376	1.83911	337.52444	-173.53197	1208.91492	-415.63834	-144.38065	576.54169	-419.19009	16.13529	577.68591	-420.85641	-133.13609	562.31763	527.09424	23.22782	557.79724	527.62427	
5289	52.880	-243.12323	33.24017	-286.18710	100.81696	93.84031	-292.69443	-279.32129	99.64291	335.35422	140.87041	1.07937	337.64774	-172.22276	1209.56165	-414.37057	-144.38303	576.97211	-418.70795	15.98238	577.74585	-420.65594	-133.10742	561.85791	527.51727	23.38697	556.87610	527.95361	
5290	52.890	-242.85345	33.62747	-285.86301	100.18261	84.48398	-292.24863	-280.52988	91.70522	335.52499	141.33385	0.70340	337.88904	-171.48428	1209.88550	-413.50354	-144.44461	577.54126	-418.20361	15.99635	577.87866	-420.28348	-133.00014	561.54303	527.74933	23.35541	555.94153	528.17926	
5291	52.900	-242.37398	34.08344	-285.60840	99.89556	75.47759	-291.42331	-280.90909	83.82896	335.65790	141.67546	0.27819	338.21344	-169.82199	1210.35864	-412.35715	-144.58765	578.07379	-417.71347	15.92159	578.12756	-419.75519	-132.97993	561.14478	528.14160	21.44787	555.43475	527.60553	
5292	52.910	-241.99757	34.76966	-285.23517	99.46925	66.55796	-290.78006	-281.01273	75.93797	335.70474	142.13536	-0.38795	338.46143	-168.58211	1211.13953	-411.89359	-144.65100	578.71112	-417.33264	15.83472	578.49493	-419.24872	-132.93111	560.60663	528.59229	22.28086	554.40277	528.16046	
5293	52.920	-241.79985	35.39443	-285.11032	99.44361	58.03129	-289.94260	-280.98367	67.40881	336.29965	142.27490	-0.97874	338.36310	-167.38953	1211.82727	-411.26819	-144.40453	579.44269	-416.71832	15.06805	578.79065	-418.67090	-133.21346	560.09753	528.96057	22.36760	553.93604	528.48267	
5294	52.930	-241.33604	35.78223	-284.89954	99.44575	49.26101	-289.10791	-280.94727	59.24047	336.87128	142.61938	-1.39136	338.61121	-165.72089	1212.89514	-409.86209	-144.49435	580.03339	-416.30664	15.62220	579.14160	-418.68680	-133.34543	559.73260	529.41772	22.20447	553.20715	528.87646	
